# xmcd CD database file
#
# Track frame offsets:
#	150
#	29117
#	64930
#	99504
#	133420
#	184052
#	218122
#	246740
#	260862
#	287335
#
# Disc length: 3857 seconds
#
# Revision: 0
# Processed by: cddbd v1.5.1PL0 Copyright (c) Steve Scherf et al.
# Submitted via: CDex 1.60beta1
#
DISCID=a80f0f0a
DTITLE=Stuart Hemingway - Jazz In Paradise
DYEAR=1900
DGENRE=Jazz
TTITLE0=You And The Night And The Music
TTITLE1=Body And Soul
TTITLE2=All Of You
TTITLE3=Autumn In New York
TTITLE4=Willow Weep For Me
TTITLE5=Summertime
TTITLE6=They Say It's Spring
TTITLE7=Fine Spring Morning
TTITLE8=Young and Foolish
TTITLE9=You And The Night And The Musical (Reprise)
EXTD=
EXTT0=
EXTT1=
EXTT2=
EXTT3=
EXTT4=
EXTT5=
EXTT6=
EXTT7=
EXTT8=
EXTT9=
PLAYORDER=
